<svg xmlns="http://www.w3.org/2000/svg" viewBox="0 0 1200 452" width="1200" height="452" role="img" aria-label="400 Python practice questions across 10 notebooks. Each dot is one question, shaded from dim for easy to bright for hard. Difficulty rises left to right within a notebook and top to bottom across them.">
<defs><linearGradient id="bg" x1="0" y1="0" x2="0.65" y2="1"><stop offset="0%" stop-color="#090d13"/><stop offset="100%" stop-color="#131c2a"/></linearGradient><linearGradient id="rule" x1="0" y1="0" x2="1" y2="0"><stop offset="0%" stop-color="#1c3a5e"/><stop offset="100%" stop-color="#cae8ff"/></linearGradient></defs>
<rect width="1200" height="452" fill="url(#bg)"/>
<rect x="0" y="0" width="4" height="452" fill="#2f81f7"/>
<text x="70" y="70" font-family="ui-monospace,SFMono-Regular,Menlo,Consolas,monospace" font-size="15" letter-spacing="5.5" fill="#6cb6ff">PYTHON · ZERO TO PRO</text>
<text x="70" y="124" font-family="Georgia,'Times New Roman',serif" font-size="46" font-weight="700" fill="#f0f6fc">Every dot is a question you can&#8217;t fake.</text>
<text x="70" y="156" font-family="-apple-system,BlinkMacSystemFont,'Segoe UI',Helvetica,Arial,sans-serif" font-size="16" fill="#8b949e">400 of them. Hidden hints, hidden solutions, and every answer graded the moment you write it.</text>
<text x="900" y="180" font-family="ui-monospace,SFMono-Regular,Menlo,Consolas,monospace" font-size="10.5" letter-spacing="1.8" fill="#6e7681">DIFFICULTY</text>
<circle cx="905" cy="196" r="5" fill="#1c3a5e"/>
<text x="920" y="200" font-family="ui-monospace,SFMono-Regular,Menlo,Consolas,monospace" font-size="11.5" fill="#8b949e">L1  Extremely Easy</text>
<text x="1130" y="200" font-family="ui-monospace,SFMono-Regular,Menlo,Consolas,monospace" font-size="11.5" fill="#484f58" text-anchor="end">70</text>
<circle cx="905" cy="219" r="5" fill="#1f5fa9"/>
<text x="920" y="223" font-family="ui-monospace,SFMono-Regular,Menlo,Consolas,monospace" font-size="11.5" fill="#8b949e">L2  Easy</text>
<text x="1130" y="223" font-family="ui-monospace,SFMono-Regular,Menlo,Consolas,monospace" font-size="11.5" fill="#484f58" text-anchor="end">100</text>
<circle cx="905" cy="242" r="5" fill="#2f81f7"/>
<text x="920" y="246" font-family="ui-monospace,SFMono-Regular,Menlo,Consolas,monospace" font-size="11.5" fill="#8b949e">L3  Intermediate</text>
<text x="1130" y="246" font-family="ui-monospace,SFMono-Regular,Menlo,Consolas,monospace" font-size="11.5" fill="#484f58" text-anchor="end">110</text>
<circle cx="905" cy="265" r="5" fill="#6cb6ff"/>
<text x="920" y="269" font-family="ui-monospace,SFMono-Regular,Menlo,Consolas,monospace" font-size="11.5" fill="#8b949e">L4  Somewhat Difficult</text>
<text x="1130" y="269" font-family="ui-monospace,SFMono-Regular,Menlo,Consolas,monospace" font-size="11.5" fill="#484f58" text-anchor="end">80</text>
<circle cx="905" cy="288" r="5" fill="#cae8ff"/>
<text x="920" y="292" font-family="ui-monospace,SFMono-Regular,Menlo,Consolas,monospace" font-size="11.5" fill="#8b949e">L5  Hard</text>
<text x="1130" y="292" font-family="ui-monospace,SFMono-Regular,Menlo,Consolas,monospace" font-size="11.5" fill="#484f58" text-anchor="end">40</text>
<line x1="900" y1="324" x2="1130" y2="324" stroke="#21262d" stroke-width="1"/>
<text x="900" y="348" font-family="ui-monospace,SFMono-Regular,Menlo,Consolas,monospace" font-size="11.5" fill="#6e7681">10 notebooks · 10 projects</text>
<text x="70" y="194.0" font-family="ui-monospace,SFMono-Regular,Menlo,Consolas,monospace" font-size="11.5" fill="#3d444d">01</text>
<text x="96" y="194.0" font-family="ui-monospace,SFMono-Regular,Menlo,Consolas,monospace" font-size="11.5" fill="#8b949e">Foundations</text>
<circle cx="252.0" cy="190.0" r="4.5" fill="#1c3a5e"/>
<circle cx="266.0" cy="190.0" r="4.5" fill="#1c3a5e"/>
<circle cx="280.0" cy="190.0" r="4.5" fill="#1c3a5e"/>
<circle cx="294.0" cy="190.0" r="4.5" fill="#1c3a5e"/>
<circle cx="308.0" cy="190.0" r="4.5" fill="#1c3a5e"/>
<circle cx="322.0" cy="190.0" r="4.5" fill="#1c3a5e"/>
<circle cx="336.0" cy="190.0" r="4.5" fill="#1c3a5e"/>
<circle cx="350.0" cy="190.0" r="4.5" fill="#1c3a5e"/>
<circle cx="364.0" cy="190.0" r="4.5" fill="#1c3a5e"/>
<circle cx="378.0" cy="190.0" r="4.5" fill="#1c3a5e"/>
<circle cx="392.0" cy="190.0" r="4.5" fill="#1c3a5e"/>
<circle cx="406.0" cy="190.0" r="4.5" fill="#1c3a5e"/>
<circle cx="420.0" cy="190.0" r="4.5" fill="#1f5fa9"/>
<circle cx="434.0" cy="190.0" r="4.5" fill="#1f5fa9"/>
<circle cx="448.0" cy="190.0" r="4.5" fill="#1f5fa9"/>
<circle cx="462.0" cy="190.0" r="4.5" fill="#1f5fa9"/>
<circle cx="476.0" cy="190.0" r="4.5" fill="#1f5fa9"/>
<circle cx="490.0" cy="190.0" r="4.5" fill="#1f5fa9"/>
<circle cx="504.0" cy="190.0" r="4.5" fill="#1f5fa9"/>
<circle cx="518.0" cy="190.0" r="4.5" fill="#1f5fa9"/>
<circle cx="532.0" cy="190.0" r="4.5" fill="#1f5fa9"/>
<circle cx="546.0" cy="190.0" r="4.5" fill="#1f5fa9"/>
<circle cx="560.0" cy="190.0" r="4.5" fill="#1f5fa9"/>
<circle cx="574.0" cy="190.0" r="4.5" fill="#2f81f7"/>
<circle cx="588.0" cy="190.0" r="4.5" fill="#2f81f7"/>
<circle cx="602.0" cy="190.0" r="4.5" fill="#2f81f7"/>
<circle cx="616.0" cy="190.0" r="4.5" fill="#2f81f7"/>
<circle cx="630.0" cy="190.0" r="4.5" fill="#2f81f7"/>
<circle cx="644.0" cy="190.0" r="4.5" fill="#2f81f7"/>
<circle cx="658.0" cy="190.0" r="4.5" fill="#2f81f7"/>
<circle cx="672.0" cy="190.0" r="4.5" fill="#2f81f7"/>
<circle cx="686.0" cy="190.0" r="4.5" fill="#6cb6ff"/>
<circle cx="700.0" cy="190.0" r="4.5" fill="#6cb6ff"/>
<circle cx="714.0" cy="190.0" r="4.5" fill="#6cb6ff"/>
<circle cx="728.0" cy="190.0" r="4.5" fill="#cae8ff"/>
<circle cx="742.0" cy="190.0" r="4.5" fill="#cae8ff"/>
<text x="766.0" y="194.0" font-family="ui-monospace,SFMono-Regular,Menlo,Consolas,monospace" font-size="11" fill="#3d444d">36</text>
<text x="70" y="217.5" font-family="ui-monospace,SFMono-Regular,Menlo,Consolas,monospace" font-size="11.5" fill="#3d444d">02</text>
<text x="96" y="217.5" font-family="ui-monospace,SFMono-Regular,Menlo,Consolas,monospace" font-size="11.5" fill="#8b949e">Strings</text>
<circle cx="252.0" cy="213.5" r="4.5" fill="#1c3a5e"/>
<circle cx="266.0" cy="213.5" r="4.5" fill="#1c3a5e"/>
<circle cx="280.0" cy="213.5" r="4.5" fill="#1c3a5e"/>
<circle cx="294.0" cy="213.5" r="4.5" fill="#1c3a5e"/>
<circle cx="308.0" cy="213.5" r="4.5" fill="#1c3a5e"/>
<circle cx="322.0" cy="213.5" r="4.5" fill="#1c3a5e"/>
<circle cx="336.0" cy="213.5" r="4.5" fill="#1c3a5e"/>
<circle cx="350.0" cy="213.5" r="4.5" fill="#1c3a5e"/>
<circle cx="364.0" cy="213.5" r="4.5" fill="#1c3a5e"/>
<circle cx="378.0" cy="213.5" r="4.5" fill="#1c3a5e"/>
<circle cx="392.0" cy="213.5" r="4.5" fill="#1c3a5e"/>
<circle cx="406.0" cy="213.5" r="4.5" fill="#1f5fa9"/>
<circle cx="420.0" cy="213.5" r="4.5" fill="#1f5fa9"/>
<circle cx="434.0" cy="213.5" r="4.5" fill="#1f5fa9"/>
<circle cx="448.0" cy="213.5" r="4.5" fill="#1f5fa9"/>
<circle cx="462.0" cy="213.5" r="4.5" fill="#1f5fa9"/>
<circle cx="476.0" cy="213.5" r="4.5" fill="#1f5fa9"/>
<circle cx="490.0" cy="213.5" r="4.5" fill="#1f5fa9"/>
<circle cx="504.0" cy="213.5" r="4.5" fill="#1f5fa9"/>
<circle cx="518.0" cy="213.5" r="4.5" fill="#1f5fa9"/>
<circle cx="532.0" cy="213.5" r="4.5" fill="#1f5fa9"/>
<circle cx="546.0" cy="213.5" r="4.5" fill="#1f5fa9"/>
<circle cx="560.0" cy="213.5" r="4.5" fill="#1f5fa9"/>
<circle cx="574.0" cy="213.5" r="4.5" fill="#2f81f7"/>
<circle cx="588.0" cy="213.5" r="4.5" fill="#2f81f7"/>
<circle cx="602.0" cy="213.5" r="4.5" fill="#2f81f7"/>
<circle cx="616.0" cy="213.5" r="4.5" fill="#2f81f7"/>
<circle cx="630.0" cy="213.5" r="4.5" fill="#2f81f7"/>
<circle cx="644.0" cy="213.5" r="4.5" fill="#2f81f7"/>
<circle cx="658.0" cy="213.5" r="4.5" fill="#2f81f7"/>
<circle cx="672.0" cy="213.5" r="4.5" fill="#2f81f7"/>
<circle cx="686.0" cy="213.5" r="4.5" fill="#2f81f7"/>
<circle cx="700.0" cy="213.5" r="4.5" fill="#6cb6ff"/>
<circle cx="714.0" cy="213.5" r="4.5" fill="#6cb6ff"/>
<circle cx="728.0" cy="213.5" r="4.5" fill="#6cb6ff"/>
<circle cx="742.0" cy="213.5" r="4.5" fill="#6cb6ff"/>
<circle cx="756.0" cy="213.5" r="4.5" fill="#cae8ff"/>
<circle cx="770.0" cy="213.5" r="4.5" fill="#cae8ff"/>
<text x="794.0" y="217.5" font-family="ui-monospace,SFMono-Regular,Menlo,Consolas,monospace" font-size="11" fill="#3d444d">38</text>
<text x="70" y="241.0" font-family="ui-monospace,SFMono-Regular,Menlo,Consolas,monospace" font-size="11.5" fill="#3d444d">03</text>
<text x="96" y="241.0" font-family="ui-monospace,SFMono-Regular,Menlo,Consolas,monospace" font-size="11.5" fill="#8b949e">Lists &amp; Tuples</text>
<circle cx="252.0" cy="237.0" r="4.5" fill="#1c3a5e"/>
<circle cx="266.0" cy="237.0" r="4.5" fill="#1c3a5e"/>
<circle cx="280.0" cy="237.0" r="4.5" fill="#1c3a5e"/>
<circle cx="294.0" cy="237.0" r="4.5" fill="#1c3a5e"/>
<circle cx="308.0" cy="237.0" r="4.5" fill="#1c3a5e"/>
<circle cx="322.0" cy="237.0" r="4.5" fill="#1c3a5e"/>
<circle cx="336.0" cy="237.0" r="4.5" fill="#1c3a5e"/>
<circle cx="350.0" cy="237.0" r="4.5" fill="#1c3a5e"/>
<circle cx="364.0" cy="237.0" r="4.5" fill="#1c3a5e"/>
<circle cx="378.0" cy="237.0" r="4.5" fill="#1c3a5e"/>
<circle cx="392.0" cy="237.0" r="4.5" fill="#1f5fa9"/>
<circle cx="406.0" cy="237.0" r="4.5" fill="#1f5fa9"/>
<circle cx="420.0" cy="237.0" r="4.5" fill="#1f5fa9"/>
<circle cx="434.0" cy="237.0" r="4.5" fill="#1f5fa9"/>
<circle cx="448.0" cy="237.0" r="4.5" fill="#1f5fa9"/>
<circle cx="462.0" cy="237.0" r="4.5" fill="#1f5fa9"/>
<circle cx="476.0" cy="237.0" r="4.5" fill="#1f5fa9"/>
<circle cx="490.0" cy="237.0" r="4.5" fill="#1f5fa9"/>
<circle cx="504.0" cy="237.0" r="4.5" fill="#1f5fa9"/>
<circle cx="518.0" cy="237.0" r="4.5" fill="#1f5fa9"/>
<circle cx="532.0" cy="237.0" r="4.5" fill="#1f5fa9"/>
<circle cx="546.0" cy="237.0" r="4.5" fill="#1f5fa9"/>
<circle cx="560.0" cy="237.0" r="4.5" fill="#2f81f7"/>
<circle cx="574.0" cy="237.0" r="4.5" fill="#2f81f7"/>
<circle cx="588.0" cy="237.0" r="4.5" fill="#2f81f7"/>
<circle cx="602.0" cy="237.0" r="4.5" fill="#2f81f7"/>
<circle cx="616.0" cy="237.0" r="4.5" fill="#2f81f7"/>
<circle cx="630.0" cy="237.0" r="4.5" fill="#2f81f7"/>
<circle cx="644.0" cy="237.0" r="4.5" fill="#2f81f7"/>
<circle cx="658.0" cy="237.0" r="4.5" fill="#2f81f7"/>
<circle cx="672.0" cy="237.0" r="4.5" fill="#2f81f7"/>
<circle cx="686.0" cy="237.0" r="4.5" fill="#2f81f7"/>
<circle cx="700.0" cy="237.0" r="4.5" fill="#6cb6ff"/>
<circle cx="714.0" cy="237.0" r="4.5" fill="#6cb6ff"/>
<circle cx="728.0" cy="237.0" r="4.5" fill="#6cb6ff"/>
<circle cx="742.0" cy="237.0" r="4.5" fill="#6cb6ff"/>
<circle cx="756.0" cy="237.0" r="4.5" fill="#cae8ff"/>
<circle cx="770.0" cy="237.0" r="4.5" fill="#cae8ff"/>
<text x="794.0" y="241.0" font-family="ui-monospace,SFMono-Regular,Menlo,Consolas,monospace" font-size="11" fill="#3d444d">38</text>
<text x="70" y="264.5" font-family="ui-monospace,SFMono-Regular,Menlo,Consolas,monospace" font-size="11.5" fill="#3d444d">04</text>
<text x="96" y="264.5" font-family="ui-monospace,SFMono-Regular,Menlo,Consolas,monospace" font-size="11.5" fill="#8b949e">Dicts &amp; Sets</text>
<circle cx="252.0" cy="260.5" r="4.5" fill="#1c3a5e"/>
<circle cx="266.0" cy="260.5" r="4.5" fill="#1c3a5e"/>
<circle cx="280.0" cy="260.5" r="4.5" fill="#1c3a5e"/>
<circle cx="294.0" cy="260.5" r="4.5" fill="#1c3a5e"/>
<circle cx="308.0" cy="260.5" r="4.5" fill="#1c3a5e"/>
<circle cx="322.0" cy="260.5" r="4.5" fill="#1c3a5e"/>
<circle cx="336.0" cy="260.5" r="4.5" fill="#1c3a5e"/>
<circle cx="350.0" cy="260.5" r="4.5" fill="#1c3a5e"/>
<circle cx="364.0" cy="260.5" r="4.5" fill="#1c3a5e"/>
<circle cx="378.0" cy="260.5" r="4.5" fill="#1f5fa9"/>
<circle cx="392.0" cy="260.5" r="4.5" fill="#1f5fa9"/>
<circle cx="406.0" cy="260.5" r="4.5" fill="#1f5fa9"/>
<circle cx="420.0" cy="260.5" r="4.5" fill="#1f5fa9"/>
<circle cx="434.0" cy="260.5" r="4.5" fill="#1f5fa9"/>
<circle cx="448.0" cy="260.5" r="4.5" fill="#1f5fa9"/>
<circle cx="462.0" cy="260.5" r="4.5" fill="#1f5fa9"/>
<circle cx="476.0" cy="260.5" r="4.5" fill="#1f5fa9"/>
<circle cx="490.0" cy="260.5" r="4.5" fill="#1f5fa9"/>
<circle cx="504.0" cy="260.5" r="4.5" fill="#1f5fa9"/>
<circle cx="518.0" cy="260.5" r="4.5" fill="#1f5fa9"/>
<circle cx="532.0" cy="260.5" r="4.5" fill="#1f5fa9"/>
<circle cx="546.0" cy="260.5" r="4.5" fill="#2f81f7"/>
<circle cx="560.0" cy="260.5" r="4.5" fill="#2f81f7"/>
<circle cx="574.0" cy="260.5" r="4.5" fill="#2f81f7"/>
<circle cx="588.0" cy="260.5" r="4.5" fill="#2f81f7"/>
<circle cx="602.0" cy="260.5" r="4.5" fill="#2f81f7"/>
<circle cx="616.0" cy="260.5" r="4.5" fill="#2f81f7"/>
<circle cx="630.0" cy="260.5" r="4.5" fill="#2f81f7"/>
<circle cx="644.0" cy="260.5" r="4.5" fill="#2f81f7"/>
<circle cx="658.0" cy="260.5" r="4.5" fill="#2f81f7"/>
<circle cx="672.0" cy="260.5" r="4.5" fill="#2f81f7"/>
<circle cx="686.0" cy="260.5" r="4.5" fill="#6cb6ff"/>
<circle cx="700.0" cy="260.5" r="4.5" fill="#6cb6ff"/>
<circle cx="714.0" cy="260.5" r="4.5" fill="#6cb6ff"/>
<circle cx="728.0" cy="260.5" r="4.5" fill="#6cb6ff"/>
<circle cx="742.0" cy="260.5" r="4.5" fill="#6cb6ff"/>
<circle cx="756.0" cy="260.5" r="4.5" fill="#cae8ff"/>
<circle cx="770.0" cy="260.5" r="4.5" fill="#cae8ff"/>
<text x="794.0" y="264.5" font-family="ui-monospace,SFMono-Regular,Menlo,Consolas,monospace" font-size="11" fill="#3d444d">38</text>
<text x="70" y="288.0" font-family="ui-monospace,SFMono-Regular,Menlo,Consolas,monospace" font-size="11.5" fill="#3d444d">05</text>
<text x="96" y="288.0" font-family="ui-monospace,SFMono-Regular,Menlo,Consolas,monospace" font-size="11.5" fill="#8b949e">Control Flow</text>
<circle cx="252.0" cy="284.0" r="4.5" fill="#1c3a5e"/>
<circle cx="266.0" cy="284.0" r="4.5" fill="#1c3a5e"/>
<circle cx="280.0" cy="284.0" r="4.5" fill="#1c3a5e"/>
<circle cx="294.0" cy="284.0" r="4.5" fill="#1c3a5e"/>
<circle cx="308.0" cy="284.0" r="4.5" fill="#1c3a5e"/>
<circle cx="322.0" cy="284.0" r="4.5" fill="#1c3a5e"/>
<circle cx="336.0" cy="284.0" r="4.5" fill="#1c3a5e"/>
<circle cx="350.0" cy="284.0" r="4.5" fill="#1c3a5e"/>
<circle cx="364.0" cy="284.0" r="4.5" fill="#1c3a5e"/>
<circle cx="378.0" cy="284.0" r="4.5" fill="#1f5fa9"/>
<circle cx="392.0" cy="284.0" r="4.5" fill="#1f5fa9"/>
<circle cx="406.0" cy="284.0" r="4.5" fill="#1f5fa9"/>
<circle cx="420.0" cy="284.0" r="4.5" fill="#1f5fa9"/>
<circle cx="434.0" cy="284.0" r="4.5" fill="#1f5fa9"/>
<circle cx="448.0" cy="284.0" r="4.5" fill="#1f5fa9"/>
<circle cx="462.0" cy="284.0" r="4.5" fill="#1f5fa9"/>
<circle cx="476.0" cy="284.0" r="4.5" fill="#1f5fa9"/>
<circle cx="490.0" cy="284.0" r="4.5" fill="#1f5fa9"/>
<circle cx="504.0" cy="284.0" r="4.5" fill="#1f5fa9"/>
<circle cx="518.0" cy="284.0" r="4.5" fill="#1f5fa9"/>
<circle cx="532.0" cy="284.0" r="4.5" fill="#2f81f7"/>
<circle cx="546.0" cy="284.0" r="4.5" fill="#2f81f7"/>
<circle cx="560.0" cy="284.0" r="4.5" fill="#2f81f7"/>
<circle cx="574.0" cy="284.0" r="4.5" fill="#2f81f7"/>
<circle cx="588.0" cy="284.0" r="4.5" fill="#2f81f7"/>
<circle cx="602.0" cy="284.0" r="4.5" fill="#2f81f7"/>
<circle cx="616.0" cy="284.0" r="4.5" fill="#2f81f7"/>
<circle cx="630.0" cy="284.0" r="4.5" fill="#2f81f7"/>
<circle cx="644.0" cy="284.0" r="4.5" fill="#2f81f7"/>
<circle cx="658.0" cy="284.0" r="4.5" fill="#6cb6ff"/>
<circle cx="672.0" cy="284.0" r="4.5" fill="#6cb6ff"/>
<circle cx="686.0" cy="284.0" r="4.5" fill="#6cb6ff"/>
<circle cx="700.0" cy="284.0" r="4.5" fill="#6cb6ff"/>
<circle cx="714.0" cy="284.0" r="4.5" fill="#cae8ff"/>
<circle cx="728.0" cy="284.0" r="4.5" fill="#cae8ff"/>
<circle cx="742.0" cy="284.0" r="4.5" fill="#cae8ff"/>
<text x="766.0" y="288.0" font-family="ui-monospace,SFMono-Regular,Menlo,Consolas,monospace" font-size="11" fill="#3d444d">36</text>
<text x="70" y="311.5" font-family="ui-monospace,SFMono-Regular,Menlo,Consolas,monospace" font-size="11.5" fill="#3d444d">06</text>
<text x="96" y="311.5" font-family="ui-monospace,SFMono-Regular,Menlo,Consolas,monospace" font-size="11.5" fill="#8b949e">Functions</text>
<circle cx="252.0" cy="307.5" r="4.5" fill="#1c3a5e"/>
<circle cx="266.0" cy="307.5" r="4.5" fill="#1c3a5e"/>
<circle cx="280.0" cy="307.5" r="4.5" fill="#1c3a5e"/>
<circle cx="294.0" cy="307.5" r="4.5" fill="#1c3a5e"/>
<circle cx="308.0" cy="307.5" r="4.5" fill="#1c3a5e"/>
<circle cx="322.0" cy="307.5" r="4.5" fill="#1c3a5e"/>
<circle cx="336.0" cy="307.5" r="4.5" fill="#1f5fa9"/>
<circle cx="350.0" cy="307.5" r="4.5" fill="#1f5fa9"/>
<circle cx="364.0" cy="307.5" r="4.5" fill="#1f5fa9"/>
<circle cx="378.0" cy="307.5" r="4.5" fill="#1f5fa9"/>
<circle cx="392.0" cy="307.5" r="4.5" fill="#1f5fa9"/>
<circle cx="406.0" cy="307.5" r="4.5" fill="#1f5fa9"/>
<circle cx="420.0" cy="307.5" r="4.5" fill="#1f5fa9"/>
<circle cx="434.0" cy="307.5" r="4.5" fill="#1f5fa9"/>
<circle cx="448.0" cy="307.5" r="4.5" fill="#1f5fa9"/>
<circle cx="462.0" cy="307.5" r="4.5" fill="#1f5fa9"/>
<circle cx="476.0" cy="307.5" r="4.5" fill="#2f81f7"/>
<circle cx="490.0" cy="307.5" r="4.5" fill="#2f81f7"/>
<circle cx="504.0" cy="307.5" r="4.5" fill="#2f81f7"/>
<circle cx="518.0" cy="307.5" r="4.5" fill="#2f81f7"/>
<circle cx="532.0" cy="307.5" r="4.5" fill="#2f81f7"/>
<circle cx="546.0" cy="307.5" r="4.5" fill="#2f81f7"/>
<circle cx="560.0" cy="307.5" r="4.5" fill="#2f81f7"/>
<circle cx="574.0" cy="307.5" r="4.5" fill="#2f81f7"/>
<circle cx="588.0" cy="307.5" r="4.5" fill="#2f81f7"/>
<circle cx="602.0" cy="307.5" r="4.5" fill="#2f81f7"/>
<circle cx="616.0" cy="307.5" r="4.5" fill="#2f81f7"/>
<circle cx="630.0" cy="307.5" r="4.5" fill="#2f81f7"/>
<circle cx="644.0" cy="307.5" r="4.5" fill="#2f81f7"/>
<circle cx="658.0" cy="307.5" r="4.5" fill="#6cb6ff"/>
<circle cx="672.0" cy="307.5" r="4.5" fill="#6cb6ff"/>
<circle cx="686.0" cy="307.5" r="4.5" fill="#6cb6ff"/>
<circle cx="700.0" cy="307.5" r="4.5" fill="#6cb6ff"/>
<circle cx="714.0" cy="307.5" r="4.5" fill="#6cb6ff"/>
<circle cx="728.0" cy="307.5" r="4.5" fill="#6cb6ff"/>
<circle cx="742.0" cy="307.5" r="4.5" fill="#6cb6ff"/>
<circle cx="756.0" cy="307.5" r="4.5" fill="#6cb6ff"/>
<circle cx="770.0" cy="307.5" r="4.5" fill="#6cb6ff"/>
<circle cx="784.0" cy="307.5" r="4.5" fill="#cae8ff"/>
<circle cx="798.0" cy="307.5" r="4.5" fill="#cae8ff"/>
<circle cx="812.0" cy="307.5" r="4.5" fill="#cae8ff"/>
<circle cx="826.0" cy="307.5" r="4.5" fill="#cae8ff"/>
<text x="850.0" y="311.5" font-family="ui-monospace,SFMono-Regular,Menlo,Consolas,monospace" font-size="11" fill="#3d444d">42</text>
<text x="70" y="335.0" font-family="ui-monospace,SFMono-Regular,Menlo,Consolas,monospace" font-size="11.5" fill="#3d444d">07</text>
<text x="96" y="335.0" font-family="ui-monospace,SFMono-Regular,Menlo,Consolas,monospace" font-size="11.5" fill="#8b949e">Comprehensions</text>
<circle cx="252.0" cy="331.0" r="4.5" fill="#1c3a5e"/>
<circle cx="266.0" cy="331.0" r="4.5" fill="#1c3a5e"/>
<circle cx="280.0" cy="331.0" r="4.5" fill="#1c3a5e"/>
<circle cx="294.0" cy="331.0" r="4.5" fill="#1c3a5e"/>
<circle cx="308.0" cy="331.0" r="4.5" fill="#1c3a5e"/>
<circle cx="322.0" cy="331.0" r="4.5" fill="#1f5fa9"/>
<circle cx="336.0" cy="331.0" r="4.5" fill="#1f5fa9"/>
<circle cx="350.0" cy="331.0" r="4.5" fill="#1f5fa9"/>
<circle cx="364.0" cy="331.0" r="4.5" fill="#1f5fa9"/>
<circle cx="378.0" cy="331.0" r="4.5" fill="#1f5fa9"/>
<circle cx="392.0" cy="331.0" r="4.5" fill="#1f5fa9"/>
<circle cx="406.0" cy="331.0" r="4.5" fill="#1f5fa9"/>
<circle cx="420.0" cy="331.0" r="4.5" fill="#1f5fa9"/>
<circle cx="434.0" cy="331.0" r="4.5" fill="#1f5fa9"/>
<circle cx="448.0" cy="331.0" r="4.5" fill="#1f5fa9"/>
<circle cx="462.0" cy="331.0" r="4.5" fill="#2f81f7"/>
<circle cx="476.0" cy="331.0" r="4.5" fill="#2f81f7"/>
<circle cx="490.0" cy="331.0" r="4.5" fill="#2f81f7"/>
<circle cx="504.0" cy="331.0" r="4.5" fill="#2f81f7"/>
<circle cx="518.0" cy="331.0" r="4.5" fill="#2f81f7"/>
<circle cx="532.0" cy="331.0" r="4.5" fill="#2f81f7"/>
<circle cx="546.0" cy="331.0" r="4.5" fill="#2f81f7"/>
<circle cx="560.0" cy="331.0" r="4.5" fill="#2f81f7"/>
<circle cx="574.0" cy="331.0" r="4.5" fill="#2f81f7"/>
<circle cx="588.0" cy="331.0" r="4.5" fill="#2f81f7"/>
<circle cx="602.0" cy="331.0" r="4.5" fill="#2f81f7"/>
<circle cx="616.0" cy="331.0" r="4.5" fill="#2f81f7"/>
<circle cx="630.0" cy="331.0" r="4.5" fill="#2f81f7"/>
<circle cx="644.0" cy="331.0" r="4.5" fill="#6cb6ff"/>
<circle cx="658.0" cy="331.0" r="4.5" fill="#6cb6ff"/>
<circle cx="672.0" cy="331.0" r="4.5" fill="#6cb6ff"/>
<circle cx="686.0" cy="331.0" r="4.5" fill="#6cb6ff"/>
<circle cx="700.0" cy="331.0" r="4.5" fill="#6cb6ff"/>
<circle cx="714.0" cy="331.0" r="4.5" fill="#6cb6ff"/>
<circle cx="728.0" cy="331.0" r="4.5" fill="#6cb6ff"/>
<circle cx="742.0" cy="331.0" r="4.5" fill="#6cb6ff"/>
<circle cx="756.0" cy="331.0" r="4.5" fill="#6cb6ff"/>
<circle cx="770.0" cy="331.0" r="4.5" fill="#cae8ff"/>
<circle cx="784.0" cy="331.0" r="4.5" fill="#cae8ff"/>
<circle cx="798.0" cy="331.0" r="4.5" fill="#cae8ff"/>
<circle cx="812.0" cy="331.0" r="4.5" fill="#cae8ff"/>
<circle cx="826.0" cy="331.0" r="4.5" fill="#cae8ff"/>
<text x="850.0" y="335.0" font-family="ui-monospace,SFMono-Regular,Menlo,Consolas,monospace" font-size="11" fill="#3d444d">42</text>
<text x="70" y="358.5" font-family="ui-monospace,SFMono-Regular,Menlo,Consolas,monospace" font-size="11.5" fill="#3d444d">08</text>
<text x="96" y="358.5" font-family="ui-monospace,SFMono-Regular,Menlo,Consolas,monospace" font-size="11.5" fill="#8b949e">OOP</text>
<circle cx="252.0" cy="354.5" r="4.5" fill="#1c3a5e"/>
<circle cx="266.0" cy="354.5" r="4.5" fill="#1c3a5e"/>
<circle cx="280.0" cy="354.5" r="4.5" fill="#1c3a5e"/>
<circle cx="294.0" cy="354.5" r="4.5" fill="#1c3a5e"/>
<circle cx="308.0" cy="354.5" r="4.5" fill="#1f5fa9"/>
<circle cx="322.0" cy="354.5" r="4.5" fill="#1f5fa9"/>
<circle cx="336.0" cy="354.5" r="4.5" fill="#1f5fa9"/>
<circle cx="350.0" cy="354.5" r="4.5" fill="#1f5fa9"/>
<circle cx="364.0" cy="354.5" r="4.5" fill="#1f5fa9"/>
<circle cx="378.0" cy="354.5" r="4.5" fill="#1f5fa9"/>
<circle cx="392.0" cy="354.5" r="4.5" fill="#1f5fa9"/>
<circle cx="406.0" cy="354.5" r="4.5" fill="#1f5fa9"/>
<circle cx="420.0" cy="354.5" r="4.5" fill="#1f5fa9"/>
<circle cx="434.0" cy="354.5" r="4.5" fill="#2f81f7"/>
<circle cx="448.0" cy="354.5" r="4.5" fill="#2f81f7"/>
<circle cx="462.0" cy="354.5" r="4.5" fill="#2f81f7"/>
<circle cx="476.0" cy="354.5" r="4.5" fill="#2f81f7"/>
<circle cx="490.0" cy="354.5" r="4.5" fill="#2f81f7"/>
<circle cx="504.0" cy="354.5" r="4.5" fill="#2f81f7"/>
<circle cx="518.0" cy="354.5" r="4.5" fill="#2f81f7"/>
<circle cx="532.0" cy="354.5" r="4.5" fill="#2f81f7"/>
<circle cx="546.0" cy="354.5" r="4.5" fill="#2f81f7"/>
<circle cx="560.0" cy="354.5" r="4.5" fill="#2f81f7"/>
<circle cx="574.0" cy="354.5" r="4.5" fill="#2f81f7"/>
<circle cx="588.0" cy="354.5" r="4.5" fill="#2f81f7"/>
<circle cx="602.0" cy="354.5" r="4.5" fill="#2f81f7"/>
<circle cx="616.0" cy="354.5" r="4.5" fill="#2f81f7"/>
<circle cx="630.0" cy="354.5" r="4.5" fill="#6cb6ff"/>
<circle cx="644.0" cy="354.5" r="4.5" fill="#6cb6ff"/>
<circle cx="658.0" cy="354.5" r="4.5" fill="#6cb6ff"/>
<circle cx="672.0" cy="354.5" r="4.5" fill="#6cb6ff"/>
<circle cx="686.0" cy="354.5" r="4.5" fill="#6cb6ff"/>
<circle cx="700.0" cy="354.5" r="4.5" fill="#6cb6ff"/>
<circle cx="714.0" cy="354.5" r="4.5" fill="#6cb6ff"/>
<circle cx="728.0" cy="354.5" r="4.5" fill="#6cb6ff"/>
<circle cx="742.0" cy="354.5" r="4.5" fill="#6cb6ff"/>
<circle cx="756.0" cy="354.5" r="4.5" fill="#6cb6ff"/>
<circle cx="770.0" cy="354.5" r="4.5" fill="#6cb6ff"/>
<circle cx="784.0" cy="354.5" r="4.5" fill="#cae8ff"/>
<circle cx="798.0" cy="354.5" r="4.5" fill="#cae8ff"/>
<circle cx="812.0" cy="354.5" r="4.5" fill="#cae8ff"/>
<circle cx="826.0" cy="354.5" r="4.5" fill="#cae8ff"/>
<circle cx="840.0" cy="354.5" r="4.5" fill="#cae8ff"/>
<circle cx="854.0" cy="354.5" r="4.5" fill="#cae8ff"/>
<text x="878.0" y="358.5" font-family="ui-monospace,SFMono-Regular,Menlo,Consolas,monospace" font-size="11" fill="#3d444d">44</text>
<text x="70" y="382.0" font-family="ui-monospace,SFMono-Regular,Menlo,Consolas,monospace" font-size="11.5" fill="#3d444d">09</text>
<text x="96" y="382.0" font-family="ui-monospace,SFMono-Regular,Menlo,Consolas,monospace" font-size="11.5" fill="#8b949e">Generators</text>
<circle cx="252.0" cy="378.0" r="4.5" fill="#1c3a5e"/>
<circle cx="266.0" cy="378.0" r="4.5" fill="#1c3a5e"/>
<circle cx="280.0" cy="378.0" r="4.5" fill="#1f5fa9"/>
<circle cx="294.0" cy="378.0" r="4.5" fill="#1f5fa9"/>
<circle cx="308.0" cy="378.0" r="4.5" fill="#1f5fa9"/>
<circle cx="322.0" cy="378.0" r="4.5" fill="#1f5fa9"/>
<circle cx="336.0" cy="378.0" r="4.5" fill="#1f5fa9"/>
<circle cx="350.0" cy="378.0" r="4.5" fill="#1f5fa9"/>
<circle cx="364.0" cy="378.0" r="4.5" fill="#1f5fa9"/>
<circle cx="378.0" cy="378.0" r="4.5" fill="#2f81f7"/>
<circle cx="392.0" cy="378.0" r="4.5" fill="#2f81f7"/>
<circle cx="406.0" cy="378.0" r="4.5" fill="#2f81f7"/>
<circle cx="420.0" cy="378.0" r="4.5" fill="#2f81f7"/>
<circle cx="434.0" cy="378.0" r="4.5" fill="#2f81f7"/>
<circle cx="448.0" cy="378.0" r="4.5" fill="#2f81f7"/>
<circle cx="462.0" cy="378.0" r="4.5" fill="#2f81f7"/>
<circle cx="476.0" cy="378.0" r="4.5" fill="#2f81f7"/>
<circle cx="490.0" cy="378.0" r="4.5" fill="#2f81f7"/>
<circle cx="504.0" cy="378.0" r="4.5" fill="#2f81f7"/>
<circle cx="518.0" cy="378.0" r="4.5" fill="#2f81f7"/>
<circle cx="532.0" cy="378.0" r="4.5" fill="#2f81f7"/>
<circle cx="546.0" cy="378.0" r="4.5" fill="#2f81f7"/>
<circle cx="560.0" cy="378.0" r="4.5" fill="#6cb6ff"/>
<circle cx="574.0" cy="378.0" r="4.5" fill="#6cb6ff"/>
<circle cx="588.0" cy="378.0" r="4.5" fill="#6cb6ff"/>
<circle cx="602.0" cy="378.0" r="4.5" fill="#6cb6ff"/>
<circle cx="616.0" cy="378.0" r="4.5" fill="#6cb6ff"/>
<circle cx="630.0" cy="378.0" r="4.5" fill="#6cb6ff"/>
<circle cx="644.0" cy="378.0" r="4.5" fill="#6cb6ff"/>
<circle cx="658.0" cy="378.0" r="4.5" fill="#6cb6ff"/>
<circle cx="672.0" cy="378.0" r="4.5" fill="#6cb6ff"/>
<circle cx="686.0" cy="378.0" r="4.5" fill="#6cb6ff"/>
<circle cx="700.0" cy="378.0" r="4.5" fill="#6cb6ff"/>
<circle cx="714.0" cy="378.0" r="4.5" fill="#6cb6ff"/>
<circle cx="728.0" cy="378.0" r="4.5" fill="#6cb6ff"/>
<circle cx="742.0" cy="378.0" r="4.5" fill="#6cb6ff"/>
<circle cx="756.0" cy="378.0" r="4.5" fill="#6cb6ff"/>
<circle cx="770.0" cy="378.0" r="4.5" fill="#cae8ff"/>
<circle cx="784.0" cy="378.0" r="4.5" fill="#cae8ff"/>
<circle cx="798.0" cy="378.0" r="4.5" fill="#cae8ff"/>
<circle cx="812.0" cy="378.0" r="4.5" fill="#cae8ff"/>
<circle cx="826.0" cy="378.0" r="4.5" fill="#cae8ff"/>
<circle cx="840.0" cy="378.0" r="4.5" fill="#cae8ff"/>
<circle cx="854.0" cy="378.0" r="4.5" fill="#cae8ff"/>
<text x="878.0" y="382.0" font-family="ui-monospace,SFMono-Regular,Menlo,Consolas,monospace" font-size="11" fill="#3d444d">44</text>
<text x="70" y="405.5" font-family="ui-monospace,SFMono-Regular,Menlo,Consolas,monospace" font-size="11.5" fill="#3d444d">10</text>
<text x="96" y="405.5" font-family="ui-monospace,SFMono-Regular,Menlo,Consolas,monospace" font-size="11.5" fill="#8b949e">Stdlib &amp; Regex</text>
<circle cx="252.0" cy="401.5" r="4.5" fill="#1c3a5e"/>
<circle cx="266.0" cy="401.5" r="4.5" fill="#1c3a5e"/>
<circle cx="280.0" cy="401.5" r="4.5" fill="#1f5fa9"/>
<circle cx="294.0" cy="401.5" r="4.5" fill="#1f5fa9"/>
<circle cx="308.0" cy="401.5" r="4.5" fill="#1f5fa9"/>
<circle cx="322.0" cy="401.5" r="4.5" fill="#1f5fa9"/>
<circle cx="336.0" cy="401.5" r="4.5" fill="#1f5fa9"/>
<circle cx="350.0" cy="401.5" r="4.5" fill="#1f5fa9"/>
<circle cx="364.0" cy="401.5" r="4.5" fill="#2f81f7"/>
<circle cx="378.0" cy="401.5" r="4.5" fill="#2f81f7"/>
<circle cx="392.0" cy="401.5" r="4.5" fill="#2f81f7"/>
<circle cx="406.0" cy="401.5" r="4.5" fill="#2f81f7"/>
<circle cx="420.0" cy="401.5" r="4.5" fill="#2f81f7"/>
<circle cx="434.0" cy="401.5" r="4.5" fill="#2f81f7"/>
<circle cx="448.0" cy="401.5" r="4.5" fill="#2f81f7"/>
<circle cx="462.0" cy="401.5" r="4.5" fill="#2f81f7"/>
<circle cx="476.0" cy="401.5" r="4.5" fill="#2f81f7"/>
<circle cx="490.0" cy="401.5" r="4.5" fill="#2f81f7"/>
<circle cx="504.0" cy="401.5" r="4.5" fill="#2f81f7"/>
<circle cx="518.0" cy="401.5" r="4.5" fill="#6cb6ff"/>
<circle cx="532.0" cy="401.5" r="4.5" fill="#6cb6ff"/>
<circle cx="546.0" cy="401.5" r="4.5" fill="#6cb6ff"/>
<circle cx="560.0" cy="401.5" r="4.5" fill="#6cb6ff"/>
<circle cx="574.0" cy="401.5" r="4.5" fill="#6cb6ff"/>
<circle cx="588.0" cy="401.5" r="4.5" fill="#6cb6ff"/>
<circle cx="602.0" cy="401.5" r="4.5" fill="#6cb6ff"/>
<circle cx="616.0" cy="401.5" r="4.5" fill="#6cb6ff"/>
<circle cx="630.0" cy="401.5" r="4.5" fill="#6cb6ff"/>
<circle cx="644.0" cy="401.5" r="4.5" fill="#6cb6ff"/>
<circle cx="658.0" cy="401.5" r="4.5" fill="#6cb6ff"/>
<circle cx="672.0" cy="401.5" r="4.5" fill="#6cb6ff"/>
<circle cx="686.0" cy="401.5" r="4.5" fill="#6cb6ff"/>
<circle cx="700.0" cy="401.5" r="4.5" fill="#6cb6ff"/>
<circle cx="714.0" cy="401.5" r="4.5" fill="#6cb6ff"/>
<circle cx="728.0" cy="401.5" r="4.5" fill="#6cb6ff"/>
<circle cx="742.0" cy="401.5" r="4.5" fill="#cae8ff"/>
<circle cx="756.0" cy="401.5" r="4.5" fill="#cae8ff"/>
<circle cx="770.0" cy="401.5" r="4.5" fill="#cae8ff"/>
<circle cx="784.0" cy="401.5" r="4.5" fill="#cae8ff"/>
<circle cx="798.0" cy="401.5" r="4.5" fill="#cae8ff"/>
<circle cx="812.0" cy="401.5" r="4.5" fill="#cae8ff"/>
<circle cx="826.0" cy="401.5" r="4.5" fill="#cae8ff"/>
<text x="850.0" y="405.5" font-family="ui-monospace,SFMono-Regular,Menlo,Consolas,monospace" font-size="11" fill="#3d444d">42</text>
<rect x="70" y="426" width="1060" height="3" rx="1.5" fill="url(#rule)" opacity="0.5"/>
</svg>